/* XPM */
static char *result[] = {
/* columns rows colors chars-per-pixel */
"32 32 5 1 ",
"  c #55FF00",
". c #DE9751",
"X c #DF9751",
"o c #E0DDFF",
"O c None",
/* pixels */
"OOOOOOOOOOOOOOOOOOOOOOOOOOOOOOOO",
"OOOOOOOOOOOOOOOOOOOOOOOOOOOOOOOO",
"OOOOOOOOOOOOOOOOOOOOOOOOOOOOOOOO",
"OOOOOOOOOOOOOOOOOOOOOOOOOOOOOOOO",
"OOOOOOOOOOOOOOOO..OOOOOOOOOOOOOO",
"OOOOOOOOOOOOOOOO..OOOOOOOOOOOOOO",
"OOOOOO      OO..OO      OOOOOOOO",
"OOOOOO      OO..OO      OOOOOOOO",
"OOOO          XX          OOOOOO",
"OOOO          XX          OOOOOO",
"OOOO                        OOOO",
"OOOO                        OOOO",
"OOOO                        OOOO",
"OOOO                        OOOO",
"OOOO                        OOOO",
"OOOO                        OOOO",
"OOOO                  oo    OOOO",
"OOOO                  oo    OOOO",
"OOOO                  oo    OOOO",
"OOOO                  oo    OOOO",
"OOOOOO              oo    OOOOOO",
"OOOOOO              oo    OOOOOO",
"OOOOOO                    OOOOOO",
"OOOOOO                    OOOOOO",
"OOOOOOOO                OOOOOOOO",
"OOOOOOOO                OOOOOOOO",
"OOOOOOOOOO    OO      OOOOOOOOOO",
"OOOOOOOOOO    OO      OOOOOOOOOO",
"OOOOOOOOOOOOOOOOOOOOOOOOOOOOOOOO",
"OOOOOOOOOOOOOOOOOOOOOOOOOOOOOOOO",
"OOOOOOOOOOOOOOOOOOOOOOOOOOOOOOOO",
"OOOOOOOOOOOOOOOOOOOOOOOOOOOOOOOO"
};
