/* XPM */
static char *result[] = {
/* columns rows colors chars-per-pixel */
"32 32 3 1 ",
"  c red",
". c white",
"X c None",
/* pixels */
"XXXXXXXXXXXXXXXXXXXXXXXXXXXXXXXX",
"XXXXXXXXXXXXXXXXXXXXXXXXXXXXXXXX",
"XXXXXXXXXXXXXXXXXXXXXXXXXXXXXXXX",
"XXXXXXXXXXXXXXXXXXXXXXXXXXXXXXXX",
"XXXXXXXXXXXXXXXXXXXXXXXXXXXXXXXX",
"XXXXXXXXXXXX        XXXXXXXXXXXX",
"XXXXXXXXXX  ........  XXXXXXXXXX",
"XXXXXXXX  ............  XXXXXXXX",
"XXXXXXX ....        .... XXXXXXX",
"XXXXXX .....        ..... XXXXXX",
"XXXXX ...... ............. XXXXX",
"XXXXX ...... ............. XXXXX",
"XXXXX ...... ............. XXXXX",
"XXXX ....... .............. XXXX",
"XXXX ....... .............. XXXX",
"XXXX .......        ....... XXXX",
"XXXX .......        ....... XXXX",
"XXXX ....... .............. XXXX",
"XXXX ....... .............. XXXX",
"XXXXX ...... ............. XXXXX",
"XXXXX ...... ............. XXXXX",
"XXXXX ...... ............. XXXXX",
"XXXXXX .....        ..... XXXXXX",
"XXXXXXX ....        .... XXXXXXX",
"XXXXXXXX  ............  XXXXXXXX",
"XXXXXXXXXX  ........  XXXXXXXXXX",
"XXXXXXXXXXXX        XXXXXXXXXXXX",
"XXXXXXXXXXXXXXXXXXXXXXXXXXXXXXXX",
"XXXXXXXXXXXXXXXXXXXXXXXXXXXXXXXX",
"XXXXXXXXXXXXXXXXXXXXXXXXXXXXXXXX",
"XXXXXXXXXXXXXXXXXXXXXXXXXXXXXXXX",
"XXXXXXXXXXXXXXXXXXXXXXXXXXXXXXXX"
};
