/* XPM */
static char *result[] = {
/* columns rows colors chars-per-pixel */
"32 32 3 1 ",
"  c red",
". c #E0DDFF",
"X c None",
/* pixels */
"XXXXXXXXXXXXXXXXXXXXXXXXXXXXXXXX",
"XXXXXXXXXXXXXXXXXXXXXXXXXXXXXXXX",
"XXXXXXXXXXXX........XXXXXXXXXXXX",
"XXXXXXXXXXXX........XXXXXXXXXXXX",
"XXXXXXXX................XXXXXXXX",
"XXXXXXXX................XXXXXXXX",
"XXXXXX....................XXXXXX",
"XXXXXX....................XXXXXX",
"XXXX........................XXXX",
"XXXX........................XXXX",
"XXXX......    ....    ......XXXX",
"XXXX......    ....    ......XXXX",
"XXXX......    ....    ......XXXX",
"XXXX......    ....    ......XXXX",
"XX............................XX",
"XX............................XX",
"XX............................XX",
"XX............................XX",
"XX....    ....    ....    ....XX",
"XX....    ....    ....    ....XX",
"XX..  ....    ....    ....  ..XX",
"XX..  ....    ....    ....  ..XX",
"XX............................XX",
"XX............................XX",
"XX............................XX",
"XX............................XX",
"XX....XX......XXXX......XX....XX",
"XX....XX......XXXX......XX....XX",
"XX..XXXXXX....XXXX....XXXXXX..XX",
"XX..XXXXXX....XXXX....XXXXXX..XX",
"XXXXXXXXXXXXXXXXXXXXXXXXXXXXXXXX",
"XXXXXXXXXXXXXXXXXXXXXXXXXXXXXXXX"
};
